<?xml version="1.0" encoding="UTF-8"?>
<!DOCTYPE svg PUBLIC "-//W3C//DTD SVG 1.1//EN" "http://www.w3.org/Graphics/SVG/1.1/DTD/svg11.dtd">
<svg version="1.1" xmlns="http://www.w3.org/2000/svg" xmlns:xlink="http://www.w3.org/1999/xlink" x="0" y="0" width="256" height="256" viewBox="0, 0, 256, 256">
  <g id="Layer_1">
    <path d="M42.667,0 L213.333,0 C236.896,0 256,19.104 256,42.667 L256,213.333 C256,236.896 236.896,256 213.333,256 L42.667,256 C19.104,256 0,236.896 0,213.333 L0,42.667 C0,19.104 19.104,0 42.667,0 z" fill="#0C263D"/>
    <path d="M37.927,0 L189.628,0 C210.574,0 227.556,16.981 227.556,37.927 L227.556,189.628 C227.556,210.574 210.574,227.556 189.628,227.556 L37.927,227.556 C16.981,227.556 0,210.574 0,189.628 L0,37.927 C0,16.981 16.981,0 37.927,0 z" fill="#FFFFFF"/>
    <path d="M32,0 L160,0 C177.675,0 192,14.325 192,32 L192,160 C192,177.675 177.675,192 160,192 L32,192 C14.325,192 0,177.675 0,160 L0,32 C0,14.325 14.325,0 32,0 z" fill="#0C263D"/>
    <path d="M148.203,84.124 L112.953,84.124 L92.004,105.102 L148.203,105.102 C143.417,125.948 125.138,140.914 103.758,141.493 C82.379,142.069 63.317,128.114 57.408,107.559 C51.502,87.008 60.245,65.06 78.67,54.197 C97.092,43.339 120.53,46.315 135.652,61.433 L143.196,53.888 L172.238,24.853 L142.613,24.853 L133.34,34.13 C112.299,23.428 87.207,24.42 67.072,36.754 C46.94,49.088 34.66,70.99 34.638,94.599 C34.628,105.316 37.166,115.876 42.041,125.415 L15.019,152.437 L44.668,152.437 L54.549,142.571 C75.321,163.307 107.065,168.338 133.227,155.036 C159.388,141.739 174.034,113.124 169.518,84.124 z" fill="#FFFFFF"/>
  </g>
</svg>
